# xmcd CD database file
#
# Track frame offsets:
#	150
#	25129
#	38924
#	59512
#	71853
#	87617
#	103510
#	124375
#	141730
#	160715
#	171886
#	189774
#
# Disc length: 2776 seconds
#
# Revision: 0
# Processed by: cddbd v1.5.2PL0 Copyright (c) Steve Scherf et al.
# Submitted via: CDex 1.70beta2
#
DISCID=af0ad60c
DTITLE=Flatland Posse - Change of Pace
DYEAR=1998
DGENRE=Country
TTITLE0=No thinkin' thing
TTITLE1=ON a good night
TTITLE2=Don't close your eyes
TTITLE3=Personality
TTITLE4=The shake
TTITLE5=Up in pictures
TTITLE6=Two beers
TTITLE7=I want to hold you
TTITLE8=Change of pace
TTITLE9=My kind of girl
TTITLE10=Yet
TTITLE11=Sold
EXTD=YEAR: 1998
EXTT0=
EXTT1=
EXTT2=
EXTT3=
EXTT4=
EXTT5=
EXTT6=
EXTT7=
EXTT8=
EXTT9=
EXTT10=
EXTT11=
PLAYORDER=
